<svg width="353" height="116" fill="none" xmlns="http://www.w3.org/2000/svg" role="img" aria-label="Иконки преимуществ."><path d="M81.1 42.45H56.3c13.8-6.9 14.9-11.3 14.4-13.7-1.2-4-5.7-7-10-5.4-5.6 2.1-7.1 10.4-8.6 16.4-2-6.1-3.8-13.8-8.2-17.7-1.3-1.1-3.1-2.3-5.8-2-4 .4-9.8 5.4-7.5 11 2.3 5.4 9.7 8.8 14.6 11.5H22.9a2.9 2.9 0 0 0-2.9 2.9v11.3c0 1.6 1.3 2.9 2.9 2.9h.3v36.3H81v-36.4h.1c1.6 0 2.9-1.3 2.9-2.9v-11.3c0-1.6-1.3-2.9-2.9-2.9Zm-18.7-16.6c2.1-.3 5 1.3 5.3 3.2.4 2.8-3.4 5.3-5.1 6.4-2.5 1.7-4.9 2.6-7.3 4.1.9-3.7 2.5-13 7.1-13.7Zm-22.9 10c-2.2-1.5-6.5-4.4-6.4-7.8.1-3.6 5.7-6.6 8.8-3.9 3.9 3.4 5.7 11.1 7.1 16.6-3.2-1.5-6.3-2.8-9.5-4.9Zm6 57.1H26.1v-33.4h19.4v33.4Zm0-36.5H23v-11h22.5v11Zm10.2 0v36.5h-7.2v-47.4h7.2v10.9ZM78 92.95H58.6v-33.4H78v33.4Zm2.9-36.5H58.6v-11h22.3v11ZM163.5 85h16V61.2h-16V85Zm2.9-20.9h10.1v18h-10.1v-18Z" fill="#83B3D3"/><path d="m206.6 59.3 2.1-2.1-9.9-9.9V20h-13.9v13.6L171.3 20 134 57.2l2.1 2.1 7.8-7.8v37.6h-4V92h63.9v-2.9h-5.1V51.5l7.9 7.8Zm-10.8 29.8h-49V48.5l24.5-24.4 24.5 24.4v40.6Zm0-44.7-7.9-7.9V22.9h7.9v21.5Z" fill="#83B3D3"/><path d="M163.7 47.1c0 4.3 3.5 7.7 7.7 7.7 4.3 0 7.8-3.5 7.8-7.7 0-4.3-3.5-7.7-7.8-7.7a7.7 7.7 0 0 0-7.7 7.7Zm7.8-5a5 5 0 0 1 5 4.9c0 2.7-2.2 4.9-5 4.9a5 5 0 0 1-5-4.9c0-2.7 2.2-4.9 5-4.9ZM153.9 61.2h-3v3.9h3v-3.9ZM159.8 61.2h-3v3.9h3v-3.9ZM153.9 67.2h-3v3.9h3v-3.9ZM159.8 67.2h-3v3.9h3v-3.9ZM185.8 61.2h-3v3.9h3v-3.9ZM191.7 61.2h-3v3.9h3v-3.9ZM185.8 67.2h-3v3.9h3v-3.9ZM191.7 67.2h-3v3.9h3v-3.9ZM328.6 66.7h-65.8c-2.3 0-4.1 1.9-4.1 4.3v3.5c0 2.4 1.9 4.3 4.1 4.3h.9v1.1c0 5.5 4.3 10.1 9.6 10.1h44.6c5.3 0 9.6-4.5 9.6-10.1v-1.1h.9c2.3 0 4.1-1.9 4.1-4.3V71a4 4 0 0 0-3.9-4.3Zm-3.9 13.2c0 3.9-3 7-6.7 7h-44.7c-3.7 0-6.7-3.2-6.7-7v-1.1h58.1v1.1Zm5.1-5.4c0 .7-.6 1.3-1.2 1.3h-65.9c-.7 0-1.2-.6-1.2-1.3V71c0-.7.6-1.3 1.2-1.3h65.8c.7 0 1.2.6 1.2 1.3.1 0 .1 3.5.1 3.5ZM274.3 58.4l5.4 4.1 5.3-4.1 5.3 4.1 5.3-4.1 5.4 4.1 5.3-4.1 5.3 4.1 5.4-4.1 5.3 4.1 6.2-4.7-1.7-2.5-4.5 3.4-5.3-4.1-5.4 4.1-5.3-4.1-5.3 4.1-5.4-4.1-5.3 4.1-5.3-4.1-5.3 4.1-5.4-4.1-5.3 4.1-4.5-3.4-1.7 2.5 6.2 4.7 5.3-4.1ZM266.7 51.5h60.8c0-.6.1-1.2.1-1.9v-1.2c-.7-15.7-14.7-28.4-31.9-28.4-17.3 0-31.3 12.7-32 28.5v1.2c0 .6 0 1.3.1 1.9h2.9v-.1Zm29-28.5c15.6 0 28.4 11.3 29 25.5h-58c.6-14.1 13.4-25.5 29-25.5Z" fill="#83B3D3"/><path d="M295.7 37.3c1.05 0 1.9-.9 1.9-2s-.85-2-1.9-2c-1.05 0-1.9.9-1.9 2s.85 2 1.9 2ZM287.9 32.2c1.05 0 1.9-.9 1.9-2s-.85-2-1.9-2c-1.05 0-1.9.9-1.9 2s.85 2 1.9 2ZM303.4 32.2c1.05 0 1.9-.9 1.9-2s-.85-2-1.9-2c-1.05 0-1.9.9-1.9 2s.85 2 1.9 2Z" fill="#83B3D3"/><rect x=".5" y=".5" width="351.51" height="114.95" rx="4.5" stroke="#7B61FF" stroke-dasharray="10 5"/></svg>